<svg data-v-0dd9719b="" version="1.0" xmlns="http://www.w3.org/2000/svg" xmlns:xlink="http://www.w3.org/1999/xlink" width="100%" height="100%" viewBox="0 0 340.000000 250.000000" preserveAspectRatio="xMidYMid meet" color-interpolation-filters="sRGB" style="margin: auto;"> <rect data-v-0dd9719b="" x="0" y="0" width="100%" height="100%" fill="#fff" fill-opacity="1" class="background"></rect> <rect data-v-0dd9719b="" x="0" y="0" width="100%" height="100%" fill="url(#watermark)" fill-opacity="1" class="watermarklayer"></rect> <g data-v-0dd9719b="" fill="#333" class="icon-text-wrapper icon-svg-group iconsvg" transform="translate(64.3499984741211,95.05898475646973)"><g class="iconsvg-imagesvg" transform="translate(0,0)"><g><rect fill="#333" fill-opacity="0" stroke-width="2" x="0" y="0" width="60" height="59.882032396179525" class="image-rect"></rect> <svg x="0" y="0" width="60" height="59.882032396179525" filtersec="colorsb3452926267" class="image-svg-svg primary" style="overflow: visible;"><svg xmlns="http://www.w3.org/2000/svg" viewBox="-0.019690807908773422 -0.045376185327768326 111.68155670166016 111.46222686767578"><title>资源 37</title><path d="M71.84 95.88c-3.49 0-5.69-1-7.53-2.89-2.38-2.44-4.87-4.78-7.2-7.26-1.13-1.2-1.89-1.08-3 0-2.3 2.43-4.7 4.76-7.07 7.11-3.91 3.87-9.24 4-13.32.34-1.72-1.6-3.4-3.44-5.15-5.18a1.62 1.62 0 0 1-.06-2.65c7-7.07 13.9-14.28 21.23-21 3.71-3.42 9-3 12.85.8 4.26 4.19 8.46 8.45 12.68 12.67 2.41 2.41 4.78 4.86 7.25 7.2 1.28 1.23 1.51 2.25.07 3.48-2.29 2-4 4.51-6.62 6.16a8.87 8.87 0 0 1-4.13 1.22z" fill="#ef4128"></path><path d="M15.43 71.2c-.09-3.28 1.5-5.64 3.58-7.75s4.32-4.4 6.55-6.53c1.14-1.09 1.16-1.93 0-3-2.41-2.3-4.75-4.69-7.1-7.08-4-4.09-4-9.4.09-13.48 1.68-1.68 3.38-3.34 5-5a1.36 1.36 0 0 1 2.27 0c7 7 14.06 13.94 21 21A8.79 8.79 0 0 1 46.65 62c-6.84 7-13.8 13.82-20.69 20.75-.9.9-1.72 1.06-2.63.12-2-2.07-4.13-4.06-6-6.23a7.77 7.77 0 0 1-1.9-5.44z" fill="#1172bb"></path><path d="M55.87 49a7.62 7.62 0 0 1-6.59-2.52c-6.88-6.84-13.74-13.71-20.63-20.54-.93-.92-1-1.72-.06-2.63 2-1.94 3.83-4 5.9-5.82a8.82 8.82 0 0 1 11.66.09c2.85 2.63 5.66 5.42 8.38 8.24 1 1 1.54 1 2.48 0 2.4-2.5 4.87-4.94 7.36-7.37 4.09-4 9.65-4 13.77 0 1.62 1.56 3.14 3.22 4.74 4.8.94.92.9 1.67 0 2.59Q72.26 36.41 61.69 47a6.83 6.83 0 0 1-5.82 2z" fill="#3ab54a"></path><path d="M62.54 55.65a8.36 8.36 0 0 1 2.82-6.85c6.15-6.2 12.38-12.32 18.58-18.47l.15-.13c3-2.86 3-2.87 5.84 0a54.28 54.28 0 0 1 4.26 4.46 8.53 8.53 0 0 1-.74 11.84c-2.67 2.7-5.31 5.42-8 8-.9.86-.81 1.38 0 2.17q4 3.9 7.91 7.9a8.86 8.86 0 0 1 .05 12.92c-1.71 1.75-3.51 3.41-5.22 5.15-.89.92-1.61 1-2.57 0-7-7-14-14-20.92-21.07a7.43 7.43 0 0 1-2.16-5.92z" fill="#f9a619"></path><path d="M46.72 102.27a8.46 8.46 0 0 1 2.81-6.85c1.62-1.65 3.31-3.24 4.9-4.92.9-.94 1.65-1 2.59-.06 1.79 1.84 3.74 3.54 5.45 5.45A8.88 8.88 0 0 1 64 106.26a8.55 8.55 0 0 1-8.17 5.15 8.87 8.87 0 0 1-8.56-5.51 7.55 7.55 0 0 1-.55-3.63z" fill="#ef4128"></path><path d="M9 46.31a10 10 0 0 1 6 2.24c2 1.87 3.89 3.9 5.87 5.82.94.91 1 1.63 0 2.56-1.87 1.75-3.61 3.64-5.47 5.42A9.45 9.45 0 0 1 5.35 64 9.25 9.25 0 0 1 0 55a9.06 9.06 0 0 1 6-8 6.72 6.72 0 0 1 3-.69z" fill="#1172bb"></path><path d="M46.7 9.33c0-4.27 2.47-7.83 5.92-8.87a9.28 9.28 0 0 1 10.6 3.42 8.94 8.94 0 0 1-.64 11.23c-1.81 2.08-3.87 3.94-5.82 5.9a1.37 1.37 0 0 1-2.29 0c-1.88-2-4-3.81-5.74-6a7.58 7.58 0 0 1-2.03-5.68z" fill="#3ab54a"></path><path d="M111.65 54.73c-.17 4.81-2.09 7.54-5.46 9.15a8.42 8.42 0 0 1-9.08-.88c-2.46-1.78-4.31-4.21-6.52-6.25-.57-.53-.86-1.29-.26-1.89 2.84-2.86 5.28-6.1 9.12-7.86 5.08-2.35 12.55 2.6 12.2 7.73z" fill="#f9a619"></path></svg></svg> <!----></g></g> <g transform="translate(67,2.664766311645508)"><g data-gra="path-name" fill-rule="" class="tp-name iconsvg-namesvg" transform="translate(0,0)"><g transform="scale(1)"><g><path d="M5.8-31.25L14.55-24.7 12.2-21.55 3.45-28.1 5.8-31.25ZM14.55-14.2L12.2-11.05 3.45-17.6 5.8-20.75 14.55-14.2ZM14.55-6.7L6.35 7.25 2.95 5.25 11.15-8.7 14.55-6.7ZM45.5-30.1L45.5-26.15 20.85-26.15 20.85 2.75 46.4 2.75 46.4 6.65 16.9 6.65 16.9-30.1 45.5-30.1ZM92.8-20.55L92.8-24.9 57.2-24.9 57.2-20.55 53.3-20.55 53.3-28.85 72.75-28.85 71.95-30.25 75.4-32.15 77.25-28.85 92.8-28.85 92.8-29.55 96.7-29.55 96.7-20.55 92.8-20.55ZM57.7-13.9L55.5-17.15 64.75-23.55 66.95-20.3 57.7-13.9ZM83.4-20.3L85.65-23.55 94.9-17.15 92.65-13.9 83.4-20.3ZM90.45-6.8L90.45 2.6Q90.45 4.45 89.15 5.78 87.85 7.1 85.95 7.1L85.95 7.1 59.35 7.1 59.35-6 86.55-6 86.55-6.8 90.45-6.8ZM63.3-2.05L63.3 3.15 85.95 3.15Q86.55 3.15 86.55 2.6L86.55 2.6 86.55-2.05 63.3-2.05ZM83.8-16.8L97.7-7.15 95.45-3.95 82.6-12.85 69.6-12.85 69.6-16.8 83.8-16.8ZM65.9-17.05L68.6-14.2Q66.05-11.75 63.42-9.73 60.8-7.7 58.67-6.23 56.55-4.75 55.17-3.88 53.8-3 53.65-2.95L53.65-2.95 51.7-6.35Q51.75-6.35 53.05-7.18 54.35-8 56.4-9.43 58.45-10.85 60.95-12.8 63.45-14.75 65.9-17.05L65.9-17.05ZM145.8-20.35L141.9-20.35 141.9-25.05 107.75-25.05 107.75-20 103.8-20 103.8-28.95 123.05-28.95 122.25-30.65 125.8-32.35 127.4-28.95 141.9-28.95 141.9-29.7 145.8-29.7 145.8-20.35ZM140.6-6.2L140.6 2.55Q140.6 4.45 139.3 5.75 138 7.05 136.1 7.05L136.1 7.05 109.05 7.05 109.05-4.95 136.65-4.95 136.65-6.2 140.6-6.2ZM112.95-1L112.95 3.15 136.1 3.15Q136.65 3.15 136.65 2.55L136.65 2.55 136.65-1 112.95-1ZM103.25-5.15L102.75-9.05Q102.8-9.05 103.88-9.2 104.95-9.35 106.78-9.68 108.6-10 111.03-10.48 113.45-10.95 116.15-11.55L116.15-11.55 112.55-12.3 113.35-16.15 124.7-13.85Q127.4-14.7 129.9-15.7 132.4-16.7 134.5-17.85L134.5-17.85 112.75-17.85 109.9-12.95 106.5-14.95 112.3-24.9 115.7-22.95 115.05-21.8 136.3-21.8 136.3-22.5 140.25-22.5 140.25-16.95 139.45-16.35Q136.4-14.15 132.15-12.4L132.15-12.4 147.25-9.4 146.5-5.55 124.9-9.85Q121.05-8.65 117.3-7.8 113.55-6.95 110.5-6.38 107.45-5.8 105.47-5.5 103.5-5.2 103.25-5.15L103.25-5.15Z" transform="translate(-2.950000047683716, 32.349998474121094)"></path></g> <!----> <!----> <!----> <!----> <!----> <!----> <!----></g></g> <g data-gra="path-slogan" fill-rule="" class="tp-slogan iconsvg-slogansvg" fill="#333" transform="translate(36.69000244140625,45.599998474121094)"><!----> <!----> <g transform="scale(1, 1)"><g transform="scale(1)"><path d="M2.06-5.06L6.56-5.06L6.56-8.58L7.73-8.58L7.73 0L6.56 0L6.56-3.98L2.06-3.98L2.06 0L0.89 0L0.89-8.58L2.06-8.58L2.06-5.06ZM15.19-3.19L15.19-8.58L16.36-8.58L16.36-3.05Q16.22 0.05 12.84 0.14L12.84 0.14Q9.70 0.05 9.56-2.86L9.56-2.86L9.56-8.58L10.73-8.58L10.73-3.19Q10.78-0.84 12.89-0.80L12.89-0.80Q15.19-0.84 15.19-3.19L15.19-3.19ZM18.33-8.58L19.50-8.58L19.50 0L18.33 0L18.33-8.58ZM25.59-3.70L22.78-3.70L22.78 0L21.61 0L21.61-8.58L25.59-8.58Q28.45-8.58 28.45-6.28L28.45-6.28Q28.45-4.88 27.23-4.22L27.23-4.22Q28.27-3.94 28.27-2.58L28.27-2.58L28.36-1.03Q28.31-0.38 28.78-0.19L28.78-0.19L28.78 0L27.33 0Q27.19-0.61 27.14-2.16L27.14-2.16Q27.19-3.70 25.59-3.70L25.59-3.70ZM25.69-7.64L22.78-7.64L22.78-4.69L25.50-4.69Q27.23-4.69 27.23-6.19L27.23-6.19Q27.23-7.64 25.69-7.64L25.69-7.64ZM36.89-4.27L36.89-4.27Q36.70-7.64 33.89-7.83L33.89-7.83Q31.03-7.69 30.89-4.27L30.89-4.27Q31.03-0.94 33.89-0.80L33.89-0.80Q36.70-0.98 36.89-4.27ZM38.06-4.27L38.06-4.27Q37.78 0 33.89 0.14L33.89 0.14Q29.95 0 29.67-4.27L29.67-4.27Q29.91-8.72 33.89-8.81L33.89-8.81Q37.78-8.67 38.06-4.27ZM40.83-8.58L45.14-1.64L45.14-8.58L46.27-8.58L46.27 0L44.95 0L40.59-6.94L40.55-6.94L40.55 0L39.42 0L39.42-8.58L40.83-8.58ZM54.47-3.61L51.84-3.61L51.84-4.59L55.59-4.59L55.59 0L54.84 0L54.56-1.08Q53.58 0.09 51.75 0.14L51.75 0.14Q50.02 0.14 49.08-0.75L49.08-0.75Q47.67-2.06 47.72-4.36L47.72-4.36Q48.05-8.63 51.80-8.81L51.80-8.81Q54.98-8.63 55.45-6L55.45-6L54.33-6Q53.86-7.78 51.75-7.83L51.75-7.83Q49.08-7.64 48.94-4.31L48.94-4.31Q48.94-0.75 51.80-0.75L51.80-0.75Q52.83-0.75 53.58-1.31L53.58-1.31Q54.52-2.06 54.47-3.61L54.47-3.61ZM59.91-4.31L58.55-3.05L58.55 0L57.38 0L57.38-8.58L58.55-8.58L58.55-4.41L62.72-8.58L64.36-8.58L60.75-5.11L64.45 0L62.91 0L59.91-4.31ZM66.66-1.03L71.81-1.03L71.81 0L65.48 0L65.48-8.58L71.72-8.58L71.72-7.59L66.66-7.59L66.66-4.92L71.34-4.92L71.34-3.89L66.66-3.89L66.66-1.03Z" transform="translate(-0.890625, 8.8125)"></path></g></g></g></g></g><defs v-gra="od"></defs></svg>